<?xml version="1.0" standalone="no"?>
<!DOCTYPE svg PUBLIC "-//W3C//DTD SVG 20010904//EN"
 "http://www.w3.org/TR/2001/REC-SVG-20010904/DTD/svg10.dtd">
<svg version="1.0" xmlns="http://www.w3.org/2000/svg"
 width="284.000000pt" height="177.000000pt" viewBox="0 0 284.000000 177.000000"
 preserveAspectRatio="xMidYMid meet">

<g transform="translate(0.000000,177.000000) scale(0.100000,-0.100000)"
fill="#000000" stroke="none">
<path d="M648 1070 c-116 -62 -148 -214 -66 -314 79 -96 234 -103 314 -14 73
80 73 206 0 286 -56 62 -173 81 -248 42z"/>
<path d="M1322 1069 c-68 -34 -112 -108 -112 -188 0 -58 42 -136 91 -168 37
-25 52 -28 119 -28 67 0 82 3 119 28 50 33 91 110 91 172 0 61 -41 139 -91
172 -58 38 -155 44 -217 12z"/>
<path d="M2005 1073 c-76 -40 -115 -103 -115 -188 0 -121 84 -205 206 -205 69
0 114 21 158 72 87 102 56 257 -65 318 -47 25 -141 26 -184 3z"/>
</g>
</svg>
